<svg xmlns="http://www.w3.org/2000/svg" xmlns:xlink="http://www.w3.org/1999/xlink" width="1170" zoomAndPan="magnify" viewBox="160 440 1170 620" height="620" preserveAspectRatio="xMidYMid meet" version="1.0"><defs><clipPath id="0e7717bb35"><path d="M 172.273438 453 L 278 453 L 278 640 L 172.273438 640 Z M 172.273438 453 " clip-rule="nonzero"/></clipPath><clipPath id="24d4b65b9e"><path d="M 515 450.4375 L 622 450.4375 L 622 644 L 515 644 Z M 515 450.4375 " clip-rule="nonzero"/></clipPath><clipPath id="2b5d1385b9"><path d="M 172.273438 653 L 279 653 L 279 847 L 172.273438 847 Z M 172.273438 653 " clip-rule="nonzero"/></clipPath><clipPath id="96f8cee14a"><path d="M 172.273438 856 L 279 856 L 279 1049.558594 L 172.273438 1049.558594 Z M 172.273438 856 " clip-rule="nonzero"/></clipPath><clipPath id="a2c245155e"><path d="M 289 856 L 395 856 L 395 1049.558594 L 289 1049.558594 Z M 289 856 " clip-rule="nonzero"/></clipPath><clipPath id="955b9a9ac2"><path d="M 755 856 L 862 856 L 862 1049.558594 L 755 1049.558594 Z M 755 856 " clip-rule="nonzero"/></clipPath></defs><g clip-path="url(#0e7717bb35)"><path fill="#ffffff" d="M 172.554688 639.933594 L 172.554688 453.996094 L 217.816406 453.996094 C 255.785156 453.996094 272.042969 475.886719 272.042969 505.902344 C 272.042969 531.855469 259.574219 540.222656 257.132812 541.847656 C 273.140625 551.835938 277.988281 568.855469 277.988281 584.289062 C 277.988281 615.117188 259.289062 639.972656 221.074219 639.972656 L 172.554688 639.972656 Z M 217 528.320312 C 233.542969 528.320312 235.171875 515.894531 235.171875 509.152344 C 235.171875 502.410156 233.542969 489.980469 217 489.980469 L 208.609375 489.980469 L 208.609375 528.363281 L 217 528.363281 Z M 221.074219 603.988281 C 235.703125 603.988281 240.0625 592.65625 240.0625 583.71875 C 240.0625 574.785156 235.742188 563.453125 221.074219 563.453125 L 208.609375 563.453125 L 208.609375 603.988281 Z M 221.074219 603.988281 " fill-opacity="1" fill-rule="nonzero"/></g><path fill="#ffffff" d="M 289.398438 453.996094 L 395.121094 453.996094 L 395.121094 491.847656 L 328.429688 491.847656 L 328.429688 528.078125 L 386.972656 528.078125 L 386.972656 565.929688 L 328.429688 565.929688 L 328.429688 602.160156 L 395.121094 602.160156 L 395.121094 640.015625 L 289.398438 640.015625 Z M 289.398438 453.996094 " fill-opacity="1" fill-rule="nonzero"/><path fill="#ffffff" d="M 400.542969 453.996094 L 440.144531 453.996094 L 458.558594 519.386719 L 477.015625 453.996094 L 516.613281 453.996094 L 478.113281 578.320312 L 478.113281 639.933594 L 439.085938 639.933594 L 439.085938 578.320312 Z M 400.542969 453.996094 " fill-opacity="1" fill-rule="nonzero"/><g clip-path="url(#24d4b65b9e)"><path fill="#ffffff" d="M 621.097656 505.308594 L 621.097656 589.101562 C 621.097656 621.511719 602.113281 643.441406 568.214844 643.441406 C 534.320312 643.441406 515.332031 621.023438 515.332031 588.570312 L 515.332031 504.78125 C 515.332031 472.328125 534.320312 450.4375 568.214844 450.4375 C 602.113281 450.4375 621.097656 472.859375 621.097656 505.308594 Z M 553.058594 538.289062 L 583.167969 506.40625 C 583.167969 497.753906 580.191406 487.761719 568.253906 487.761719 C 553.875 487.761719 553.058594 501.53125 553.058594 510.183594 Z M 583.410156 556.121094 L 553.058594 588.003906 C 553.058594 596.371094 556.316406 606.117188 568.253906 606.117188 C 582.636719 606.117188 583.453125 592.347656 583.453125 583.695312 L 583.453125 556.121094 Z M 583.410156 556.121094 " fill-opacity="1" fill-rule="nonzero"/></g><path fill="#ffffff" d="M 670.148438 453.992188 L 699.96875 546.960938 L 699.96875 453.992188 L 737.9375 453.992188 L 737.9375 639.929688 L 699.441406 639.929688 L 669.617188 546.960938 L 669.617188 639.929688 L 631.648438 639.929688 L 631.648438 453.992188 Z M 670.148438 453.992188 " fill-opacity="1" fill-rule="nonzero"/><path fill="#ffffff" d="M 748.777344 453.992188 L 797.296875 453.992188 C 835.511719 453.992188 854.5 478.605469 854.5 506.425781 L 854.5 587.496094 C 854.5 615.316406 835.511719 639.929688 797.296875 639.929688 L 748.777344 639.929688 Z M 786.214844 603.171875 L 793.792969 603.171875 C 816.570312 603.171875 817.097656 584.773438 817.097656 577.21875 L 817.097656 516.660156 C 817.097656 509.105469 816.570312 490.707031 793.792969 490.707031 L 786.214844 490.707031 Z M 786.214844 603.171875 " fill-opacity="1" fill-rule="nonzero"/><g clip-path="url(#2b5d1385b9)"><path fill="#ffffff" d="M 225.398438 653.511719 C 259.292969 653.511719 278.523438 676.214844 278.523438 708.382812 L 278.523438 726.214844 L 240.835938 726.214844 L 240.835938 713.785156 C 240.835938 705.945312 240.023438 690.796875 225.398438 690.796875 C 210.769531 690.796875 209.957031 705.945312 209.957031 713.785156 L 209.957031 786.203125 C 209.957031 794.042969 210.769531 809.191406 225.398438 809.191406 C 240.023438 809.191406 240.835938 794.042969 240.835938 786.203125 L 240.835938 773.773438 L 278.523438 773.773438 L 278.523438 791.605469 C 278.523438 823.773438 259.292969 846.476562 225.398438 846.476562 C 191.5 846.476562 172.269531 823.773438 172.269531 791.605469 L 172.269531 708.34375 C 172.269531 676.175781 191.5 653.472656 225.398438 653.472656 Z M 225.398438 653.511719 " fill-opacity="1" fill-rule="nonzero"/></g><path fill="#ffffff" d="M 394.839844 708.347656 L 394.839844 792.136719 C 394.839844 824.546875 375.855469 846.480469 341.957031 846.480469 C 308.0625 846.480469 289.078125 824.0625 289.078125 791.609375 L 289.078125 707.820312 C 289.078125 675.367188 308.0625 653.476562 341.957031 653.476562 C 375.855469 653.476562 394.839844 675.894531 394.839844 708.347656 Z M 326.804688 741.328125 L 356.910156 709.441406 C 356.910156 700.792969 353.9375 690.800781 342 690.800781 C 327.617188 690.800781 326.804688 704.570312 326.804688 713.21875 Z M 357.15625 759.15625 L 326.804688 791.039062 C 326.804688 799.40625 330.0625 809.15625 342 809.15625 C 356.382812 809.15625 357.195312 795.386719 357.195312 786.734375 L 357.195312 759.15625 Z M 357.15625 759.15625 " fill-opacity="1" fill-rule="nonzero"/><path fill="#ffffff" d="M 405.964844 657.027344 L 454.484375 657.027344 C 492.703125 657.027344 511.6875 681.640625 511.6875 709.464844 L 511.6875 790.53125 C 511.6875 818.351562 492.703125 842.964844 454.484375 842.964844 L 405.964844 842.964844 Z M 443.363281 806.210938 L 450.941406 806.210938 C 473.714844 806.210938 474.246094 787.808594 474.246094 780.253906 L 474.246094 719.699219 C 474.246094 712.144531 473.714844 693.746094 450.941406 693.746094 L 443.363281 693.746094 Z M 443.363281 806.210938 " fill-opacity="1" fill-rule="nonzero"/><path fill="#ffffff" d="M 522.515625 657.027344 L 628.238281 657.027344 L 628.238281 694.882812 L 561.546875 694.882812 L 561.546875 731.109375 L 620.089844 731.109375 L 620.089844 768.964844 L 561.546875 768.964844 L 561.546875 805.195312 L 628.238281 805.195312 L 628.238281 843.046875 L 522.515625 843.046875 Z M 522.515625 657.027344 " fill-opacity="1" fill-rule="nonzero"/><g clip-path="url(#96f8cee14a)"><path fill="#ffffff" d="M 225.398438 856.5625 C 259.292969 856.5625 278.523438 879.269531 278.523438 911.4375 L 278.523438 929.265625 L 240.835938 929.265625 L 240.835938 916.835938 C 240.835938 909 240.023438 893.847656 225.398438 893.847656 C 210.769531 893.847656 209.957031 909 209.957031 916.835938 L 209.957031 989.253906 C 209.957031 997.09375 210.769531 1012.246094 225.398438 1012.246094 C 240.023438 1012.246094 240.835938 997.09375 240.835938 989.253906 L 240.835938 976.828125 L 278.523438 976.828125 L 278.523438 994.65625 C 278.523438 1026.824219 259.292969 1049.527344 225.398438 1049.527344 C 191.5 1049.527344 172.269531 1026.824219 172.269531 994.65625 L 172.269531 911.394531 C 172.269531 879.226562 191.5 856.523438 225.398438 856.523438 Z M 225.398438 856.5625 " fill-opacity="1" fill-rule="nonzero"/></g><g clip-path="url(#a2c245155e)"><path fill="#ffffff" d="M 394.839844 911.472656 L 394.839844 995.261719 C 394.839844 1027.675781 375.855469 1049.605469 341.957031 1049.605469 C 308.0625 1049.605469 289.078125 1027.1875 289.078125 994.734375 L 289.078125 910.945312 C 289.078125 878.492188 308.0625 856.601562 341.957031 856.601562 C 375.855469 856.601562 394.839844 879.019531 394.839844 911.472656 Z M 326.804688 944.453125 L 356.910156 912.570312 C 356.910156 903.917969 353.9375 893.925781 342 893.925781 C 327.617188 893.925781 326.804688 907.695312 326.804688 916.347656 Z M 357.15625 962.285156 L 326.804688 994.167969 C 326.804688 1002.53125 330.0625 1012.28125 342 1012.28125 C 356.382812 1012.28125 357.195312 998.511719 357.195312 989.863281 L 357.195312 962.285156 Z M 357.15625 962.285156 " fill-opacity="1" fill-rule="nonzero"/></g><path fill="#ffffff" d="M 405.429688 860.15625 L 445.027344 860.15625 L 445.027344 1007.1875 L 511.722656 1007.1875 L 511.722656 1046.09375 L 405.46875 1046.09375 L 405.46875 860.15625 Z M 405.429688 860.15625 " fill-opacity="1" fill-rule="nonzero"/><path fill="#ffffff" d="M 521.992188 860.15625 L 561.59375 860.15625 L 561.59375 1007.1875 L 628.285156 1007.1875 L 628.285156 1046.09375 L 522.035156 1046.09375 L 522.035156 860.15625 Z M 521.992188 860.15625 " fill-opacity="1" fill-rule="nonzero"/><path fill="#ffffff" d="M 639.121094 860.15625 L 744.84375 860.15625 L 744.84375 898.011719 L 678.152344 898.011719 L 678.152344 934.242188 L 736.695312 934.242188 L 736.695312 972.09375 L 678.152344 972.09375 L 678.152344 1008.324219 L 744.84375 1008.324219 L 744.84375 1046.175781 L 639.121094 1046.175781 Z M 639.121094 860.15625 " fill-opacity="1" fill-rule="nonzero"/><g clip-path="url(#955b9a9ac2)"><path fill="#ffffff" d="M 808.277344 856.5625 C 842.171875 856.5625 861.402344 879.269531 861.402344 911.4375 L 861.402344 929.265625 L 823.71875 929.265625 L 823.71875 916.835938 C 823.71875 909 822.902344 893.847656 808.277344 893.847656 C 793.652344 893.847656 792.835938 909 792.835938 916.835938 L 792.835938 989.253906 C 792.835938 997.09375 793.652344 1012.246094 808.277344 1012.246094 C 822.902344 1012.246094 823.71875 997.09375 823.71875 989.253906 L 823.71875 976.828125 L 861.402344 976.828125 L 861.402344 994.65625 C 861.402344 1026.824219 842.171875 1049.527344 808.277344 1049.527344 C 774.378906 1049.527344 755.152344 1026.824219 755.152344 994.65625 L 755.152344 911.394531 C 755.152344 879.226562 774.378906 856.523438 808.277344 856.523438 Z M 808.277344 856.5625 " fill-opacity="1" fill-rule="nonzero"/></g><path fill="#ffffff" d="M 871.707031 860.15625 L 977.957031 860.15625 L 977.957031 898.539062 L 944.347656 898.539062 L 944.347656 1046.09375 L 905.316406 1046.09375 L 905.316406 898.539062 L 871.707031 898.539062 Z M 871.707031 860.15625 " fill-opacity="1" fill-rule="nonzero"/><path fill="#ffffff" d="M 989.933594 1008.238281 L 1023.832031 1008.238281 L 1023.832031 919.332031 L 989.933594 919.332031 L 989.933594 888.261719 C 1009.449219 888.261719 1023.832031 879.082031 1023.832031 860.15625 L 1062.859375 860.15625 L 1062.859375 1008.28125 L 1095.65625 1008.28125 L 1095.65625 1046.132812 L 989.933594 1046.132812 Z M 989.933594 1008.238281 " fill-opacity="1" fill-rule="nonzero"/><path fill="#ffffff" d="M 1088.746094 860.15625 L 1127.773438 860.15625 L 1145.660156 987.203125 L 1163.542969 860.15625 L 1202.574219 860.15625 L 1174.382812 1046.09375 L 1116.898438 1046.09375 L 1088.703125 860.15625 Z M 1088.746094 860.15625 " fill-opacity="1" fill-rule="nonzero"/><path fill="#ffffff" d="M 1212.875 860.15625 L 1318.601562 860.15625 L 1318.601562 898.011719 L 1251.90625 898.011719 L 1251.90625 934.242188 L 1310.449219 934.242188 L 1310.449219 972.09375 L 1251.90625 972.09375 L 1251.90625 1008.324219 L 1318.601562 1008.324219 L 1318.601562 1046.175781 L 1212.875 1046.175781 Z M 1212.875 860.15625 " fill-opacity="1" fill-rule="nonzero"/></svg>