<svg width="718" height="165" viewBox="0 0 718 165" fill="none" xmlns="http://www.w3.org/2000/svg">
<path d="M0 161.009V3.37781H109.666V21.3928H20.2669V74.7622H105.163V93.0024H20.2669V161.009H0Z" fill="#222222"/>
<path d="M114.195 82.1934C114.195 36.9308 154.503 0 199.991 0C245.029 0 285.337 36.9308 285.337 82.1934C285.337 127.456 245.029 164.387 199.991 164.387C154.503 164.387 114.195 127.456 114.195 82.1934ZM134.687 82.1934C134.687 117.998 163.961 145.921 199.766 145.921C235.796 145.921 264.845 117.998 264.845 82.1934C264.845 46.3886 235.796 18.4654 199.766 18.4654C163.961 18.4654 134.687 46.3886 134.687 82.1934Z" fill="#222222"/>
<path d="M295.567 161.009V3.37781H362.673C397.802 3.37781 420.997 21.3928 420.997 54.4954C420.997 81.0675 406.36 98.1817 379.562 102.46L425.275 161.009H400.28L356.368 104.262H315.834V161.009H295.567ZM315.834 21.3928V86.472H360.421C386.993 86.472 400.73 77.2393 400.73 54.7206C400.73 32.2018 386.993 21.3928 360.421 21.3928H315.834Z" fill="#222222"/>
<path d="M513.345 18.4654C477.54 18.4654 448.266 46.3886 448.266 82.1934C448.266 117.998 477.54 145.921 513.345 145.921C546.672 145.921 574.145 121.826 577.748 89.8498H502.986V73.6363H598.24C598.691 76.5637 598.691 79.266 598.691 82.1934C598.691 127.456 558.382 164.387 513.345 164.387C467.857 164.387 427.548 127.456 427.548 82.1934C427.548 36.9308 467.857 0 513.345 0C548.924 0 581.802 22.9691 593.737 55.1709H572.119C561.985 33.3277 539.241 18.4654 513.345 18.4654Z" fill="#222222"/>
<path d="M717.289 161.009H607.848V3.37781H717.289V21.3928H628.115V72.5104H712.785V90.5254H628.115V142.994H717.289V161.009Z" fill="#222222"/>
<path d="M157.641 71.7063V64.9258H186.19V71.7063H175.707V96.1518H168.124V71.7063H157.641Z" fill="#222222"/>
<path d="M187.961 96.1518V64.9258H195.544V77.7731H207.945V64.9258H215.529V96.1518H207.945V84.4643H195.544V96.1518H187.961Z" fill="#222222"/>
<path d="M241.457 96.1518H218.216V64.9258H241.457V71.7063H225.799V77.2377H240.565V83.8844H225.799V89.3713H241.457V96.1518Z" fill="#222222"/>
</svg>
