<svg fill="#FFFFFF" role="img" viewBox="0 0 24 24" xmlns="http://www.w3.org/2000/svg"><title>Amazon</title><path d="M.045 18.02c.072-.116.187-.124.348-.022 3.636 2.11 7.594 3.166 11.87 3.166 2.852 0 5.668-.533 8.447-1.595l.315-.14c.138-.06.234-.1.293-.13.226-.088.39-.046.493.13.155.259.01.494-.293.703-1.12.772-2.287 1.42-3.501 1.95-2.237.981-4.625 1.472-7.168 1.472-2.732 0-5.347-.553-7.842-1.66-2.456-1.09-4.559-2.594-6.303-4.512-.091-.1-.124-.199-.088-.293a.183.183 0 0 1 .07-.072zm6.87-4.632a2.751 2.751 0 0 1-.478-1.622V7.47c0-.598.074-1.143.222-1.635.196-.653.518-1.2.967-1.64.449-.442.98-.73 1.59-.86a7.53 7.53 0 0 1 1.782-.19c.517 0 1.033.056 1.546.167.512.112.96.291 1.345.535.385.243.695.564.928.962.233.397.35.862.35 1.39v.396l-2.22.023c0-.574-.124-1.014-.37-1.317-.25-.303-.675-.455-1.28-.455-.456 0-.845.127-1.167.382-.322.256-.483.606-.483 1.053v.24c0 .33.117.612.352.845.236.232.552.416.95.55.398.133.84.276 1.324.427.484.152.968.322 1.452.51.484.188.925.41 1.323.665.398.257.717.577.958.962.24.385.36.85.36 1.393 0 .724-.18 1.333-.54 1.828-.36.494-.85.864-1.468 1.108a5.467 5.467 0 0 1-2.015.367 6.994 6.994 0 0 1-1.596-.178 4.385 4.385 0 0 1-1.38-.571 2.858 2.858 0 0 1-.97-1.04 3.21 3.21 0 0 1-.363-1.587l2.195-.023c0 .632.168 1.1.502 1.405.335.306.808.46 1.42.46.553 0 .997-.14 1.332-.417.334-.278.502-.65.502-1.117 0-.33-.117-.607-.35-.835-.234-.228-.553-.413-.957-.553a31.16 31.16 0 0 0-1.326-.434 12.297 12.297 0 0 1-1.452-.51 3.807 3.807 0 0 1-1.323-.663zM21.56 19.088c.31-.186.636-.34.978-.463.342-.123.636-.142.883-.06.246.084.37.286.37.604v.198c0 .296-.14.62-.418.972-.28.352-.644.633-1.092.845l-.276.116c-.336.14-.62.192-.852.154-.234-.038-.35-.215-.35-.53v-.198c0-.242.067-.462.2-.658a4.143 4.143 0 0 1 .557-.63c0-.116-.044-.19-.132-.22a.596.596 0 0 0-.308.022l-.198.06c-.134.042-.222.054-.264.037-.042-.017-.063-.06-.063-.132v-.132c0-.083.025-.158.074-.224a.655.655 0 0 1 .198-.164c.228-.128.449-.231.663-.31zM15.4 7.285c0-.25-.028-.485-.084-.705a1.413 1.413 0 0 0-.283-.563c-.133-.16-.314-.287-.543-.38a2.11 2.11 0 0 0-.82-.14c-.535 0-.943.148-1.222.444-.28.296-.42.716-.42 1.258v4.398c0 .476.14.86.42 1.152.279.292.687.438 1.222.438.535 0 .937-.146 1.21-.438.273-.292.41-.676.41-1.152V7.285h.11z"/></svg>