<svg width="143" height="46" viewBox="0 0 143 46" fill="none" xmlns="http://www.w3.org/2000/svg">
<path d="M42.5567 3.4751L40.0703 9.59212L51.8768 9.59212L51.8768 41.8307L59.1254 41.8307L59.1254 9.59212L64.8934 9.59212L64.8934 3.4751L42.5567 3.4751ZM80.3493 3.4751L80.3493 19.5818L76.0618 19.5818L76.0618 3.4751L68.8132 3.4751L68.8132 41.8307L76.0618 41.8307L76.0618 25.724L80.3493 25.724L80.3493 41.8307L87.5979 41.8307L87.5979 3.4751L80.3493 3.4751ZM93.256 3.4751L93.256 41.8307L110.321 41.8307L110.321 35.7136L100.505 35.7136L100.505 25.7208L108.951 25.7208L108.951 19.5818L100.505 19.5818L100.505 9.58898L110.321 9.58898L110.321 3.4751L93.256 3.4751ZM126.887 3.4751L126.887 22.37L122.055 3.4751L114.895 3.4751L114.895 41.8307L121.905 41.8307L121.905 23.4576L126.519 41.8307L133.68 41.8307L133.68 3.4751L126.89 3.4751L126.887 3.4751Z" fill="white"/>
<path d="M0.683594 41.8307L7.93218 41.8307L7.93218 3.4751L0.683594 3.4751L0.683594 41.8307ZM13.7003 3.4751L13.7003 41.8307L20.9488 41.8307L20.9488 25.724L29.0399 25.724L31.5263 19.5849L20.9488 19.5849L20.9488 9.59212L35.7384 9.59212L38.2248 3.4751L13.7003 3.4751Z" fill="white"/>
<path d="M135.207 6.90484C135.207 4.9025 136.82 3.30566 138.806 3.30566C140.793 3.30566 142.405 4.9025 142.405 6.90484C142.405 8.90717 140.808 10.504 138.806 10.504C136.804 10.504 135.207 8.89145 135.207 6.90484ZM135.682 6.90484C135.682 8.61798 137.074 10.0294 138.806 10.0294C140.538 10.0294 141.912 8.62112 141.912 6.90484C141.912 5.18855 140.519 3.79918 138.806 3.79918C137.093 3.79918 135.682 5.17283 135.682 6.90484ZM139.79 8.97633L138.721 7.34805L137.973 7.34805L137.973 8.97633L137.429 8.97633L137.429 4.85221L139.111 4.85221C139.825 4.85221 140.419 5.34572 140.419 6.10956C140.419 7.02743 139.605 7.33234 139.366 7.33234L140.469 8.97947L139.79 8.97947L139.79 8.97633ZM137.976 5.32686L137.976 6.85454L139.114 6.85454C139.539 6.85454 139.862 6.53077 139.862 6.10642C139.862 5.64748 139.539 5.32686 139.114 5.32686L137.976 5.32686Z" fill="white"/>
<path d="M41.1542 0.00024283L22.332 45.1514L23.7827 45.7561L42.6049 0.604996L41.1542 0.00024283Z" fill="white"/>
</svg>
