<svg fill="#FFFFFF" role="img" viewBox="0 0 24 24" xmlns="http://www.w3.org/2000/svg"><title>Salesforce</title><path d="M10.006 5.415a4.195 4.195 0 0 1 3.045-1.306c1.56 0 2.954.875 3.69 2.18a4.886 4.886 0 0 1 2.07-.46 5.156 5.156 0 0 1 5.189 5.2 5.156 5.156 0 0 1-5.189 5.2 4.93 4.93 0 0 1-1.015-.106c-.643 1.152-1.876 1.931-3.291 1.931a3.635 3.635 0 0 1-1.654-.381c-.654 1.537-2.186 2.62-3.966 2.62-1.85 0-3.435-1.174-4.042-2.824a3.903 3.903 0 0 1-.82.086C1.795 17.555 0 15.748 0 13.52c0-1.492.802-2.803 2-3.496a4.666 4.666 0 0 1-.383-1.841c0-2.601 2.087-4.708 4.665-4.708 1.506 0 2.853.718 3.724 1.84z"/></svg>